G04 #@! TF.FileFunction,Copper,L1,Top,Signal*
%FSLAX46Y46*%
G04 Gerber Fmt 4.6, Leading zero omitted, Abs format (unit mm)*
G04 Created by KiCad (PCBNEW 4.0.5) date 2017 January 01, Sunday 22:06:37*
%MOMM*%
%LPD*%
G01*
G04 APERTURE LIST*
%ADD10C,0.100000*%
%ADD11C,0.250000*%
%ADD12R,0.797560X0.797560*%
%ADD13R,0.500000X0.900000*%
%ADD14R,1.500000X1.300000*%
%ADD15R,1.143000X0.508000*%
%ADD16R,4.200000X3.200000*%
G04 APERTURE END LIST*
D10*
D11*
X163167143Y-115155714D02*
X163238571Y-115298571D01*
X163238571Y-115584285D01*
X163167143Y-115727142D01*
X163024286Y-115798571D01*
X162452857Y-115798571D01*
X162310000Y-115727142D01*
X162238571Y-115584285D01*
X162238571Y-115298571D01*
X162310000Y-115155714D01*
X162452857Y-115084285D01*
X162595714Y-115084285D01*
X162738571Y-115798571D01*
X162238571Y-114441428D02*
X163738571Y-114441428D01*
X162310000Y-114441428D02*
X162238571Y-114298571D01*
X162238571Y-114012857D01*
X162310000Y-113870000D01*
X162381429Y-113798571D01*
X162524286Y-113727142D01*
X162952857Y-113727142D01*
X163095714Y-113798571D01*
X163167143Y-113870000D01*
X163238571Y-114012857D01*
X163238571Y-114298571D01*
X163167143Y-114441428D01*
X163238571Y-112441428D02*
X162452857Y-112441428D01*
X162310000Y-112512857D01*
X162238571Y-112655714D01*
X162238571Y-112941428D01*
X162310000Y-113084285D01*
X163167143Y-112441428D02*
X163238571Y-112584285D01*
X163238571Y-112941428D01*
X163167143Y-113084285D01*
X163024286Y-113155714D01*
X162881429Y-113155714D01*
X162738571Y-113084285D01*
X162667143Y-112941428D01*
X162667143Y-112584285D01*
X162595714Y-112441428D01*
X162238571Y-111941428D02*
X162238571Y-111369999D01*
X161738571Y-111727142D02*
X163024286Y-111727142D01*
X163167143Y-111655714D01*
X163238571Y-111512856D01*
X163238571Y-111369999D01*
X163167143Y-110298571D02*
X163238571Y-110441428D01*
X163238571Y-110727142D01*
X163167143Y-110869999D01*
X163024286Y-110941428D01*
X162452857Y-110941428D01*
X162310000Y-110869999D01*
X162238571Y-110727142D01*
X162238571Y-110441428D01*
X162310000Y-110298571D01*
X162452857Y-110227142D01*
X162595714Y-110227142D01*
X162738571Y-110941428D01*
X163238571Y-109369999D02*
X163167143Y-109512857D01*
X163024286Y-109584285D01*
X161738571Y-109584285D01*
X162524286Y-107870000D02*
X162452857Y-107941428D01*
X162381429Y-108084285D01*
X162381429Y-108227143D01*
X162452857Y-108370000D01*
X162524286Y-108441428D01*
X162667143Y-108512857D01*
X162810000Y-108512857D01*
X162952857Y-108441428D01*
X163024286Y-108370000D01*
X163095714Y-108227143D01*
X163095714Y-108084285D01*
X163024286Y-107941428D01*
X162952857Y-107870000D01*
X162381429Y-107870000D02*
X162952857Y-107870000D01*
X163024286Y-107798571D01*
X163024286Y-107727143D01*
X162952857Y-107584285D01*
X162810000Y-107512857D01*
X162452857Y-107512857D01*
X162238571Y-107655714D01*
X162095714Y-107870000D01*
X162024286Y-108155714D01*
X162095714Y-108441428D01*
X162238571Y-108655714D01*
X162452857Y-108798571D01*
X162738571Y-108870000D01*
X163024286Y-108798571D01*
X163238571Y-108655714D01*
X163381429Y-108441428D01*
X163452857Y-108155714D01*
X163381429Y-107870000D01*
X163238571Y-107655714D01*
X163238571Y-106870000D02*
X162238571Y-106870000D01*
X162381429Y-106870000D02*
X162310000Y-106798572D01*
X162238571Y-106655714D01*
X162238571Y-106441429D01*
X162310000Y-106298572D01*
X162452857Y-106227143D01*
X163238571Y-106227143D01*
X162452857Y-106227143D02*
X162310000Y-106155714D01*
X162238571Y-106012857D01*
X162238571Y-105798572D01*
X162310000Y-105655714D01*
X162452857Y-105584286D01*
X163238571Y-105584286D01*
X163167143Y-104298572D02*
X163238571Y-104441429D01*
X163238571Y-104727143D01*
X163167143Y-104870000D01*
X163024286Y-104941429D01*
X162452857Y-104941429D01*
X162310000Y-104870000D01*
X162238571Y-104727143D01*
X162238571Y-104441429D01*
X162310000Y-104298572D01*
X162452857Y-104227143D01*
X162595714Y-104227143D01*
X162738571Y-104941429D01*
X163238571Y-103584286D02*
X162238571Y-103584286D01*
X162381429Y-103584286D02*
X162310000Y-103512858D01*
X162238571Y-103370000D01*
X162238571Y-103155715D01*
X162310000Y-103012858D01*
X162452857Y-102941429D01*
X163238571Y-102941429D01*
X162452857Y-102941429D02*
X162310000Y-102870000D01*
X162238571Y-102727143D01*
X162238571Y-102512858D01*
X162310000Y-102370000D01*
X162452857Y-102298572D01*
X163238571Y-102298572D01*
X163167143Y-101012858D02*
X163238571Y-101155715D01*
X163238571Y-101441429D01*
X163167143Y-101584286D01*
X163024286Y-101655715D01*
X162452857Y-101655715D01*
X162310000Y-101584286D01*
X162238571Y-101441429D01*
X162238571Y-101155715D01*
X162310000Y-101012858D01*
X162452857Y-100941429D01*
X162595714Y-100941429D01*
X162738571Y-101655715D01*
X162238571Y-100298572D02*
X163238571Y-100298572D01*
X162381429Y-100298572D02*
X162310000Y-100227144D01*
X162238571Y-100084286D01*
X162238571Y-99870001D01*
X162310000Y-99727144D01*
X162452857Y-99655715D01*
X163238571Y-99655715D01*
X162238571Y-99155715D02*
X162238571Y-98584286D01*
X161738571Y-98941429D02*
X163024286Y-98941429D01*
X163167143Y-98870001D01*
X163238571Y-98727143D01*
X163238571Y-98584286D01*
X163238571Y-98084286D02*
X162238571Y-98084286D01*
X161738571Y-98084286D02*
X161810000Y-98155715D01*
X161881429Y-98084286D01*
X161810000Y-98012858D01*
X161738571Y-98084286D01*
X161881429Y-98084286D01*
X163238571Y-97155714D02*
X163167143Y-97298572D01*
X163095714Y-97370000D01*
X162952857Y-97441429D01*
X162524286Y-97441429D01*
X162381429Y-97370000D01*
X162310000Y-97298572D01*
X162238571Y-97155714D01*
X162238571Y-96941429D01*
X162310000Y-96798572D01*
X162381429Y-96727143D01*
X162524286Y-96655714D01*
X162952857Y-96655714D01*
X163095714Y-96727143D01*
X163167143Y-96798572D01*
X163238571Y-96941429D01*
X163238571Y-97155714D01*
X162238571Y-96012857D02*
X163238571Y-96012857D01*
X162381429Y-96012857D02*
X162310000Y-95941429D01*
X162238571Y-95798571D01*
X162238571Y-95584286D01*
X162310000Y-95441429D01*
X162452857Y-95370000D01*
X163238571Y-95370000D01*
X163095714Y-94655714D02*
X163167143Y-94584286D01*
X163238571Y-94655714D01*
X163167143Y-94727143D01*
X163095714Y-94655714D01*
X163238571Y-94655714D01*
X163167143Y-93298571D02*
X163238571Y-93441428D01*
X163238571Y-93727142D01*
X163167143Y-93870000D01*
X163095714Y-93941428D01*
X162952857Y-94012857D01*
X162524286Y-94012857D01*
X162381429Y-93941428D01*
X162310000Y-93870000D01*
X162238571Y-93727142D01*
X162238571Y-93441428D01*
X162310000Y-93298571D01*
X163238571Y-92441428D02*
X163167143Y-92584286D01*
X163095714Y-92655714D01*
X162952857Y-92727143D01*
X162524286Y-92727143D01*
X162381429Y-92655714D01*
X162310000Y-92584286D01*
X162238571Y-92441428D01*
X162238571Y-92227143D01*
X162310000Y-92084286D01*
X162381429Y-92012857D01*
X162524286Y-91941428D01*
X162952857Y-91941428D01*
X163095714Y-92012857D01*
X163167143Y-92084286D01*
X163238571Y-92227143D01*
X163238571Y-92441428D01*
X163238571Y-91298571D02*
X162238571Y-91298571D01*
X162381429Y-91298571D02*
X162310000Y-91227143D01*
X162238571Y-91084285D01*
X162238571Y-90870000D01*
X162310000Y-90727143D01*
X162452857Y-90655714D01*
X163238571Y-90655714D01*
X162452857Y-90655714D02*
X162310000Y-90584285D01*
X162238571Y-90441428D01*
X162238571Y-90227143D01*
X162310000Y-90084285D01*
X162452857Y-90012857D01*
X163238571Y-90012857D01*
D12*
X154190700Y-96520000D03*
X155689300Y-96520000D03*
X154190700Y-101600000D03*
X155689300Y-101600000D03*
D13*
X150610000Y-96520000D03*
X149110000Y-96520000D03*
X150610000Y-101600000D03*
X149110000Y-101600000D03*
D14*
X147320000Y-118110000D03*
X155320000Y-118110000D03*
X147320000Y-113610000D03*
X155320000Y-113610000D03*
D15*
X155575000Y-86995000D03*
X155575000Y-88265000D03*
X155575000Y-89535000D03*
X155575000Y-90805000D03*
X147955000Y-90805000D03*
X147955000Y-89535000D03*
X147955000Y-88265000D03*
X147955000Y-86995000D03*
D16*
X134620000Y-87630000D03*
X134620000Y-116930000D03*
D11*
X134620000Y-87630000D02*
X143510000Y-87630000D01*
X143510000Y-87630000D02*
X146050000Y-85090000D01*
X146050000Y-85090000D02*
X153670000Y-85090000D01*
X153670000Y-85090000D02*
X155575000Y-86995000D01*
X134620000Y-116930000D02*
X146140000Y-116930000D01*
X146140000Y-116930000D02*
X147320000Y-118110000D01*
X151130000Y-114300000D02*
X147320000Y-118110000D01*
X147320000Y-101600000D02*
X147320000Y-107950000D01*
X147320000Y-107950000D02*
X151130000Y-111760000D01*
X151130000Y-111760000D02*
X151130000Y-114300000D01*
X147320000Y-101600000D02*
X149110000Y-101600000D01*
X147320000Y-96520000D02*
X147320000Y-101600000D01*
X147320000Y-92710000D02*
X147320000Y-91440000D01*
X147320000Y-96520000D02*
X149110000Y-96520000D01*
X147320000Y-91440000D02*
X147955000Y-90805000D01*
X147320000Y-96520000D02*
X147320000Y-92710000D01*
X150610000Y-96520000D02*
X154190700Y-96520000D01*
X155575000Y-90805000D02*
X155575000Y-96405700D01*
X155575000Y-96405700D02*
X155689300Y-96520000D01*
X150610000Y-101600000D02*
X154190700Y-101600000D01*
X155575000Y-89535000D02*
X156845000Y-89535000D01*
X156845000Y-89535000D02*
X157480000Y-90170000D01*
X157480000Y-90170000D02*
X157480000Y-99809300D01*
X157480000Y-99809300D02*
X155689300Y-101600000D01*
X146050000Y-88900000D02*
X146050000Y-87630000D01*
X146050000Y-87630000D02*
X146685000Y-86995000D01*
X146685000Y-86995000D02*
X147955000Y-86995000D01*
X147320000Y-113610000D02*
X146050000Y-112340000D01*
X146050000Y-88900000D02*
X146050000Y-112340000D01*
M02*
